# XSI Wavefront OBJ Export v3.0
# File Created: Sun Jul 05 12:04:16 2015
# XSI Version: 13.0.114.0
mtllib OBJ_Coussin.mtl

o cube
# Hierarchy (from self to top father)
g cube

#begin 90 vertices
v -0.546421 0.001035 -0.124842
v 0.572571 -0.017120 -0.127087
v -0.550726 1.124027 -0.132281
v 0.590972 1.134294 -0.143555
v -0.536738 -0.006870 0.100643
v 0.594663 0.007273 0.109789
v -0.562174 1.144516 0.094345
v 0.582359 1.125462 0.109426
v 0.020616 1.078837 0.106611
v 0.018363 0.078343 0.092412
v 0.007454 0.050537 -0.127179
v 0.020660 1.050619 -0.142919
v -0.490248 0.572549 0.101785
v 0.017110 0.568744 0.119285
v 0.519452 0.568289 0.097754
v 0.510947 0.552273 -0.136885
v 0.032402 0.569017 -0.208364
v -0.477177 0.542362 -0.130601
v -0.278015 1.067443 0.111919
v -0.241922 0.562260 0.163140
v -0.254659 0.024815 0.106326
v -0.252445 0.054077 -0.125196
v -0.229227 0.557186 -0.206797
v -0.255095 1.084221 -0.124841
v 0.289656 1.095417 0.093418
v 0.261276 0.577334 0.166386
v 0.309086 0.054492 0.109096
v 0.315988 0.049867 -0.144105
v 0.273785 0.563180 -0.208103
v 0.304438 1.103035 -0.130072
v 0.029699 0.823997 0.178067
v 0.285239 0.826326 0.167321
v 0.533453 0.839853 0.097411
v 0.543210 0.857723 -0.134322
v 0.286099 0.831102 -0.210947
v 0.010943 0.811029 -0.201578
v -0.249389 0.835868 -0.198233
v -0.500116 0.827518 -0.141762
v -0.503902 0.845393 0.102700
v -0.248516 0.833143 0.175398
v -0.261060 0.296066 0.164718
v 0.017033 0.549362 0.121881
v 0.291187 0.291652 0.162260
v 0.546004 0.259558 0.093164
v 0.524410 0.277724 -0.134818
v 0.291328 0.285374 -0.204672
v 0.032342 0.321278 -0.197030
v -0.255313 0.309018 -0.198670
v -0.499828 0.260884 -0.128387
v -0.492648 0.296142 0.106239
v -0.093180 0.565927 0.148029
v 0.120887 0.572340 0.149410
v 0.022371 0.677274 0.154379
v 0.098149 0.646244 0.150149
v -0.063461 0.648308 0.152594
v -0.067259 0.485692 0.149360
v 0.017729 0.297285 0.172799
v 0.099950 0.484355 0.148616
v 0.017279 0.453204 0.152138
v -0.037230 0.566961 0.149710
v 0.068132 0.570117 0.150390
v 0.019643 0.621765 0.152835
v 0.056941 0.606493 0.150753
v -0.022603 0.607509 0.151957
v -0.024473 0.527470 0.150365
v 0.057827 0.526812 0.149999
v 0.017137 0.511479 0.151732
v -0.000778 0.567538 0.121219
v 0.033739 0.568572 0.121441
v 0.017854 0.585492 0.122243
v 0.030073 0.580489 0.121560
v 0.004014 0.580821 0.121955
v 0.003402 0.554600 0.121433
v 0.030363 0.554385 0.121313
v -0.006482 0.591231 0.137014
v -0.015147 0.567209 0.135683
v -0.007589 0.543814 0.136071
v 0.017061 0.534341 0.136881
v 0.041167 0.543424 0.135854
v 0.047272 0.569079 0.136086
v 0.040642 0.590629 0.136301
v 0.018546 0.599676 0.137535
v -0.130282 0.423605 0.158682
v -0.156828 0.564013 0.164683
v -0.137318 0.721930 0.164723
v 0.025676 0.741354 0.174770
v 0.182994 0.727570 0.160000
v 0.188618 0.574435 0.166819
v 0.174286 0.409300 0.157130
v 0.017546 0.394116 0.171022
#end 90 vertices

#begin 352 normals
vn -0.103164 -0.138599 -0.984961
vn -0.080382 0.141757 -0.986632
vn 0.102314 0.116702 -0.987883
vn 0.158227 -0.104715 -0.981835
vn 0.145768 -0.985868 -0.082561
vn -0.207708 -0.976080 0.064232
vn -0.207708 -0.976080 0.064232
vn 0.145768 -0.985868 -0.082561
vn -0.986932 0.158908 0.026726
vn -0.986932 0.158908 0.026726
vn -0.983560 -0.179763 -0.017164
vn -0.983560 -0.179763 -0.017164
vn 0.981011 0.169395 -0.094463
vn 0.985127 -0.169532 0.027998
vn 0.985127 -0.169532 0.027998
vn 0.981011 0.169395 -0.094463
vn 0.197326 0.980314 0.006785
vn 0.197326 0.980314 0.006785
vn -0.105329 0.994010 0.029145
vn -0.105329 0.994010 0.029145
vn -0.117090 -0.102384 0.987830
vn 0.116968 -0.058108 0.991434
vn 0.090517 0.101829 0.990675
vn -0.146582 0.108293 0.983253
vn -0.043142 0.998473 -0.034500
vn 0.018841 0.266852 0.963553
vn 0.026316 -0.999143 0.031949
vn 0.005977 -0.276930 0.960871
vn -0.027169 -0.256231 -0.966234
vn 0.026316 -0.999143 0.031949
vn -0.019197 0.262912 -0.964629
vn -0.043142 0.998473 -0.034500
vn -0.019197 0.262912 -0.964629
vn -0.027169 -0.256231 -0.966234
vn 0.026316 -0.999143 0.031949
vn 0.026316 -0.999143 0.031949
vn -0.043142 0.998473 -0.034500
vn -0.043142 0.998473 -0.034500
vn 0.005977 -0.276930 0.960871
vn 0.018841 0.266852 0.963553
vn -0.999660 -0.010671 -0.023771
vn -0.250207 -0.006319 0.968172
vn -0.000371 -0.018999 0.999820
vn -0.000371 -0.018999 0.999820
vn 0.999498 -0.005696 -0.031152
vn 0.262069 -0.004903 0.965037
vn 0.287398 -0.008094 -0.957777
vn 0.999498 -0.005696 -0.031152
vn -0.010453 -0.007949 -0.999914
vn -0.010453 -0.007949 -0.999914
vn -0.271049 -0.008208 -0.962531
vn -0.999660 -0.010671 -0.023771
vn -0.271049 -0.008208 -0.962531
vn -0.010453 -0.007949 -0.999914
vn -0.999660 -0.010671 -0.023771
vn -0.999660 -0.010671 -0.023771
vn 0.999498 -0.005696 -0.031152
vn 0.999498 -0.005696 -0.031152
vn -0.000371 -0.018999 0.999820
vn -0.250207 -0.006319 0.968172
vn 0.287398 -0.008094 -0.957777
vn -0.010453 -0.007949 -0.999914
vn 0.262069 -0.004903 0.965037
vn -0.000371 -0.018999 0.999820
vn 0.117928 0.992994 -0.007493
vn -0.072037 0.188362 0.979454
vn -0.111932 -0.013278 0.993627
vn 0.410669 -0.025112 0.911439
vn 0.119636 -0.991850 -0.043834
vn -0.040251 -0.188308 0.981285
vn -0.049959 -0.201579 -0.978197
vn 0.119636 -0.991850 -0.043834
vn -0.138527 -0.006803 -0.990335
vn -0.138527 -0.006803 -0.990335
vn -0.045345 0.202024 -0.978330
vn 0.117928 0.992994 -0.007493
vn -0.138527 -0.006803 -0.990335
vn -0.049959 -0.201579 -0.978197
vn 0.119636 -0.991850 -0.043834
vn 0.119636 -0.991850 -0.043834
vn 0.117928 0.992994 -0.007493
vn 0.117928 0.992994 -0.007493
vn -0.040251 -0.188308 0.981285
vn 0.410669 -0.025112 0.911439
vn -0.045345 0.202024 -0.978330
vn -0.138527 -0.006803 -0.990335
vn -0.072037 0.188362 0.979454
vn -0.111932 -0.013278 0.993627
vn -0.114622 0.993369 -0.008958
vn 0.062657 0.185376 0.980668
vn 0.109036 -0.006348 0.994018
vn 0.109036 -0.006348 0.994018
vn -0.124677 -0.989952 0.066713
vn 0.046310 -0.171522 0.984091
vn 0.050594 -0.178388 -0.982659
vn -0.124677 -0.989952 0.066713
vn 0.136587 -0.009471 -0.990583
vn 0.136587 -0.009471 -0.990583
vn 0.037187 0.191552 -0.980778
vn -0.114622 0.993369 -0.008958
vn 0.136587 -0.009471 -0.990583
vn 0.037187 0.191552 -0.980778
vn -0.124677 -0.989952 0.066713
vn -0.124677 -0.989952 0.066713
vn -0.114622 0.993369 -0.008958
vn -0.114622 0.993369 -0.008958
vn -0.428852 -0.025131 0.903025
vn 0.046310 -0.171522 0.984091
vn 0.050594 -0.178388 -0.982659
vn 0.136587 -0.009471 -0.990583
vn 0.062657 0.185376 0.980668
vn -0.428852 -0.025131 0.903025
vn 0.017758 0.090115 0.995773
vn 0.017758 0.090115 0.995773
vn 0.080774 0.055356 0.995194
vn 0.080774 0.055356 0.995194
vn 0.992057 -0.124870 0.015195
vn 0.178282 0.040974 0.983126
vn 0.196077 0.047276 -0.979448
vn 0.992057 -0.124870 0.015195
vn 0.087110 0.092816 -0.991865
vn 0.087110 0.092816 -0.991865
vn -0.016355 0.141591 -0.989790
vn -0.016355 0.141591 -0.989790
vn -0.089796 0.103114 -0.990608
vn -0.089796 0.103114 -0.990608
vn -0.169430 0.059306 -0.983756
vn -0.992135 -0.123053 -0.022927
vn -0.992135 -0.123053 -0.022927
vn -0.203336 0.037795 0.978379
vn -0.080812 0.045723 0.995680
vn -0.080812 0.045723 0.995680
vn 0.196077 0.047276 -0.979448
vn 0.087110 0.092816 -0.991865
vn -0.089796 0.103114 -0.990608
vn -0.169430 0.059306 -0.983756
vn -0.992135 -0.123053 -0.022927
vn -0.992135 -0.123053 -0.022927
vn 0.992057 -0.124870 0.015195
vn 0.992057 -0.124870 0.015195
vn 0.357707 -0.411781 0.838142
vn -0.004570 -0.452001 0.892006
vn 0.080774 0.055356 0.995194
vn 0.178282 0.040974 0.983126
vn -0.016355 0.141591 -0.989790
vn -0.089796 0.103114 -0.990608
vn -0.203336 0.037795 0.978379
vn -0.080812 0.045723 0.995680
vn -0.016355 0.141591 -0.989790
vn 0.087110 0.092816 -0.991865
vn -0.004570 -0.452001 0.892006
vn -0.376416 -0.379825 0.845011
vn -0.068556 -0.061555 0.995746
vn -0.068556 -0.061555 0.995746
vn 0.005945 -0.109482 0.993971
vn 0.001230 0.417880 0.908501
vn 0.073553 -0.060670 0.995444
vn -0.374852 0.342583 0.861465
vn 0.989682 0.119155 -0.079572
vn 0.189132 -0.023859 0.981662
vn 0.223734 -0.049235 -0.973406
vn 0.989682 0.119155 -0.079572
vn 0.094074 -0.095345 -0.990989
vn 0.094074 -0.095345 -0.990989
vn -0.017513 -0.146014 -0.989127
vn -0.017513 -0.146014 -0.989127
vn -0.097145 -0.109749 -0.989201
vn -0.097145 -0.109749 -0.989201
vn -0.195938 -0.065955 -0.978396
vn -0.994780 0.101962 0.003944
vn -0.994780 0.101962 0.003944
vn -0.180142 -0.041161 0.982779
vn -0.195938 -0.065955 -0.978396
vn -0.097145 -0.109749 -0.989201
vn -0.994780 0.101962 0.003944
vn -0.994780 0.101962 0.003944
vn 0.989682 0.119155 -0.079572
vn 0.989682 0.119155 -0.079572
vn -0.068556 -0.061555 0.995746
vn -0.180142 -0.041161 0.982779
vn 0.189132 -0.023859 0.981662
vn 0.073553 -0.060670 0.995444
vn 0.094074 -0.095345 -0.990989
vn 0.223734 -0.049235 -0.973406
vn -0.017513 -0.146014 -0.989127
vn -0.097145 -0.109749 -0.989201
vn 0.001230 0.417880 0.908501
vn 0.357828 0.367322 0.858507
vn 0.005945 -0.109482 0.993971
vn 0.073553 -0.060670 0.995444
vn -0.017513 -0.146014 -0.989127
vn 0.094074 -0.095345 -0.990989
vn 0.005945 -0.109482 0.993971
vn 0.073553 -0.060670 0.995444
vn -0.024843 0.049061 0.998487
vn 0.009165 0.115101 0.993312
vn 0.073553 -0.060670 0.995444
vn 0.109036 -0.006348 0.994018
vn -0.082161 -0.007123 0.996594
vn -0.024843 0.049061 0.998487
vn 0.109036 -0.006348 0.994018
vn 0.080774 0.055356 0.995194
vn -0.020073 -0.064188 0.997736
vn -0.082161 -0.007123 0.996594
vn 0.080774 0.055356 0.995194
vn 0.017758 0.090115 0.995773
vn 0.016761 -0.128730 0.991538
vn -0.020073 -0.064188 0.997736
vn 0.017758 0.090115 0.995773
vn -0.080812 0.045723 0.995680
vn 0.033925 -0.090039 0.995360
vn 0.016761 -0.128730 0.991538
vn -0.080812 0.045723 0.995680
vn -0.111932 -0.013278 0.993627
vn 0.077168 -0.017326 0.996868
vn 0.033925 -0.090039 0.995360
vn -0.111932 -0.013278 0.993627
vn -0.068556 -0.061555 0.995746
vn 0.031824 0.067049 0.997242
vn 0.077168 -0.017326 0.996868
vn -0.068556 -0.061555 0.995746
vn 0.005945 -0.109482 0.993971
vn 0.009165 0.115101 0.993312
vn 0.031824 0.067049 0.997242
vn 0.009165 0.115101 0.993312
vn -0.024843 0.049061 0.998487
vn -0.179010 0.174795 0.968195
vn 0.005706 0.285387 0.958395
vn -0.024843 0.049061 0.998487
vn -0.082161 -0.007123 0.996594
vn -0.284579 -0.017999 0.958484
vn -0.179010 0.174795 0.968195
vn -0.082161 -0.007123 0.996594
vn -0.020073 -0.064188 0.997736
vn -0.177793 -0.203233 0.962853
vn -0.284579 -0.017999 0.958484
vn -0.020073 -0.064188 0.997736
vn 0.016761 -0.128730 0.991538
vn 0.006551 -0.309625 0.950836
vn -0.177793 -0.203233 0.962853
vn 0.016761 -0.128730 0.991538
vn 0.033925 -0.090039 0.995360
vn 0.173570 -0.230625 0.957437
vn 0.006551 -0.309625 0.950836
vn 0.033925 -0.090039 0.995360
vn 0.077168 -0.017326 0.996868
vn 0.261670 -0.023412 0.964873
vn 0.173570 -0.230625 0.957437
vn 0.077168 -0.017326 0.996868
vn 0.031824 0.067049 0.997242
vn 0.170317 0.193955 0.966113
vn 0.261670 -0.023412 0.964873
vn 0.031824 0.067049 0.997242
vn 0.009165 0.115101 0.993312
vn 0.005706 0.285387 0.958395
vn 0.170317 0.193955 0.966113
vn 0.005706 0.285387 0.958395
vn -0.179010 0.174795 0.968195
vn -0.374852 0.342583 0.861465
vn 0.001230 0.417880 0.908501
vn -0.179010 0.174795 0.968195
vn -0.284579 -0.017999 0.958484
vn -0.428852 -0.025131 0.903025
vn -0.374852 0.342583 0.861465
vn -0.284579 -0.017999 0.958484
vn -0.177793 -0.203233 0.962853
vn -0.376416 -0.379825 0.845011
vn -0.428852 -0.025131 0.903025
vn -0.177793 -0.203233 0.962853
vn 0.006551 -0.309625 0.950836
vn -0.004570 -0.452001 0.892006
vn -0.376416 -0.379825 0.845011
vn 0.006551 -0.309625 0.950836
vn 0.173570 -0.230625 0.957437
vn 0.357707 -0.411781 0.838142
vn -0.004570 -0.452001 0.892006
vn 0.173570 -0.230625 0.957437
vn 0.261670 -0.023412 0.964873
vn 0.410669 -0.025112 0.911439
vn 0.357707 -0.411781 0.838142
vn 0.261670 -0.023412 0.964873
vn 0.170317 0.193955 0.966113
vn 0.357828 0.367322 0.858507
vn 0.410669 -0.025112 0.911439
vn 0.170317 0.193955 0.966113
vn 0.005706 0.285387 0.958395
vn 0.001230 0.417880 0.908501
vn 0.357828 0.367322 0.858507
vn 0.421801 -0.472455 0.773867
vn 0.421801 -0.472455 0.773867
vn 0.626194 -0.026133 0.779229
vn 0.626194 -0.026133 0.779229
vn 0.428306 0.430007 0.794763
vn 0.428306 0.430007 0.794763
vn 0.006007 0.628561 0.777737
vn 0.006007 0.628561 0.777737
vn -0.449144 0.403776 0.797016
vn -0.449144 0.403776 0.797016
vn -0.652788 -0.027848 0.757028
vn -0.652788 -0.027848 0.757028
vn -0.446890 -0.437983 0.780039
vn -0.446890 -0.437983 0.780039
vn -0.007521 -0.654368 0.756139
vn -0.007521 -0.654368 0.756139
vn -0.449144 0.403776 0.797016
vn 0.006007 0.628561 0.777737
vn -0.652788 -0.027848 0.757028
vn -0.449144 0.403776 0.797016
vn -0.446890 -0.437983 0.780039
vn -0.652788 -0.027848 0.757028
vn -0.007521 -0.654368 0.756139
vn -0.446890 -0.437983 0.780039
vn 0.421801 -0.472455 0.773867
vn -0.007521 -0.654368 0.756139
vn 0.626194 -0.026133 0.779229
vn 0.421801 -0.472455 0.773867
vn 0.428306 0.430007 0.794763
vn 0.626194 -0.026133 0.779229
vn 0.006007 0.628561 0.777737
vn 0.428306 0.430007 0.794763
vn 0.042803 0.076108 0.996180
vn 0.042803 0.076108 0.996180
vn 0.106134 -0.017771 0.994193
vn 0.106134 -0.017771 0.994193
vn 0.042803 0.076108 0.996180
vn 0.106134 -0.017771 0.994193
vn 0.044990 -0.101055 0.993863
vn 0.044990 -0.101055 0.993863
vn 0.106134 -0.017771 0.994193
vn 0.044990 -0.101055 0.993863
vn 0.016788 -0.159030 0.987131
vn 0.016788 -0.159030 0.987131
vn 0.044990 -0.101055 0.993863
vn 0.016788 -0.159030 0.987131
vn -0.033328 -0.074725 0.996647
vn -0.033328 -0.074725 0.996647
vn 0.016788 -0.159030 0.987131
vn -0.033328 -0.074725 0.996647
vn -0.114823 -0.006472 0.993365
vn -0.114823 -0.006472 0.993365
vn -0.033328 -0.074725 0.996647
vn -0.114823 -0.006472 0.993365
vn -0.036963 0.058308 0.997614
vn -0.036963 0.058308 0.997614
vn -0.114823 -0.006472 0.993365
vn -0.036963 0.058308 0.997614
vn 0.009584 0.142064 0.989811
vn 0.009584 0.142064 0.989811
vn -0.036963 0.058308 0.997614
vn 0.009584 0.142064 0.989811
vn 0.009584 0.142064 0.989811
vn 0.042803 0.076108 0.996180
#end 352 vertex normals

#begin texture vertices
vt 0.444199 0.343692 0.000000
vt 0.122681 0.036457 0.000000
vt 0.144445 0.345056 0.000000
vt 0.445072 0.671643 0.000000
vt 0.073523 0.971873 0.000000
vt 0.139878 0.670263 0.000000
vt 0.505599 0.342536 0.000000
vt 0.061301 0.042638 0.000000
vt 0.079787 0.354400 0.000000
vt 0.811501 0.350003 0.000000
vt 0.013033 0.963656 0.000000
vt 0.506599 0.677704 0.000000
vt 0.072873 0.659510 0.000000
vt 0.815123 0.654703 0.000000
vt 0.661591 0.647687 0.000000
vt 0.043581 0.807672 0.000000
vt 0.073301 0.195700 0.000000
vt 0.654743 0.369013 0.000000
vt 0.296365 0.366067 0.000000
vt 0.133431 0.188684 0.000000
vt 0.109370 0.821775 0.000000
vt 0.292741 0.643661 0.000000
vt 0.509097 0.510868 0.000000
vt 0.655494 0.506025 0.000000
vt 0.088132 0.508866 0.000000
vt 0.794463 0.503374 0.000000
vt 0.153801 0.505874 0.000000
vt 0.290274 0.510402 0.000000
vt 0.439173 0.503016 0.000000
vt 0.580335 0.647717 0.000000
vt 0.024659 0.885488 0.000000
vt 0.583628 0.506179 0.000000
vt 0.064315 0.120136 0.000000
vt 0.580558 0.355874 0.000000
vt 0.366577 0.365564 0.000000
vt 0.128027 0.117885 0.000000
vt 0.363039 0.507215 0.000000
vt 0.088076 0.893259 0.000000
vt 0.366816 0.655032 0.000000
vt 0.061684 0.737667 0.000000
vt 0.735150 0.649176 0.000000
vt 0.721910 0.507232 0.000000
vt 0.734052 0.364268 0.000000
vt 0.074527 0.275505 0.000000
vt 0.143665 0.272471 0.000000
vt 0.212834 0.367104 0.000000
vt 0.223774 0.508828 0.000000
vt 0.216290 0.658068 0.000000
vt 0.121243 0.745295 0.000000
vt 0.660750 0.575901 0.000000
vt 0.729494 0.574126 0.000000
vt 0.799096 0.577452 0.000000
vt 0.084480 0.582556 0.000000
vt 0.147768 0.593179 0.000000
vt 0.221297 0.581912 0.000000
vt 0.295940 0.576846 0.000000
vt 0.367069 0.584707 0.000000
vt 0.439394 0.587806 0.000000
vt 0.510712 0.591653 0.000000
vt 0.585269 0.581373 0.000000
vt 0.578113 0.431733 0.000000
vt 0.655451 0.502218 0.000000
vt 0.728351 0.429932 0.000000
vt 0.088555 0.424185 0.000000
vt 0.799536 0.419023 0.000000
vt 0.152489 0.427588 0.000000
vt 0.219584 0.432845 0.000000
vt 0.290164 0.442167 0.000000
vt 0.369271 0.437972 0.000000
vt 0.440638 0.418555 0.000000
vt 0.509825 0.428933 0.000000
vt 0.625626 0.506143 0.000000
vt 0.683481 0.506607 0.000000
vt 0.657564 0.535591 0.000000
vt 0.677833 0.526698 0.000000
vt 0.634092 0.528478 0.000000
vt 0.632105 0.484083 0.000000
vt 0.654519 0.432148 0.000000
vt 0.677404 0.482978 0.000000
vt 0.654915 0.474994 0.000000
vt 0.640807 0.506123 0.000000
vt 0.669370 0.506296 0.000000
vt 0.656412 0.520715 0.000000
vt 0.666369 0.516197 0.000000
vt 0.644987 0.517093 0.000000
vt 0.644061 0.495258 0.000000
vt 0.666170 0.494703 0.000000
vt 0.655136 0.490624 0.000000
vt 0.652073 0.505868 0.000000
vt 0.658647 0.505933 0.000000
vt 0.655753 0.509324 0.000000
vt 0.658050 0.508187 0.000000
vt 0.652959 0.508499 0.000000
vt 0.652740 0.503284 0.000000
vt 0.658027 0.503276 0.000000
vt 0.649786 0.511886 0.000000
vt 0.647642 0.505966 0.000000
vt 0.649296 0.500120 0.000000
vt 0.655249 0.497637 0.000000
vt 0.661180 0.499818 0.000000
vt 0.662899 0.506068 0.000000
vt 0.661278 0.511397 0.000000
vt 0.655934 0.513805 0.000000
vt 0.614420 0.467107 0.000000
vt 0.607501 0.506127 0.000000
vt 0.614424 0.549503 0.000000
vt 0.658925 0.553649 0.000000
vt 0.701386 0.548233 0.000000
vt 0.702282 0.506836 0.000000
vt 0.697296 0.462221 0.000000
vt 0.654723 0.458290 0.000000
#end 111 texture vertices

#begin 88 faces
usemtl scene_material
f 1/1/1 49/70/169 48/69/167 22/35/71 
usemtl scene_material
f 1/2/5 22/36/72 21/33/69 5/8/8 
usemtl scene_material
f 1/1/9 5/7/10 50/71/171 49/70/170 
usemtl scene_material
f 2/3/13 45/66/162 44/64/159 6/9/16 
usemtl scene_material
f 3/5/17 7/11/18 19/31/65 24/38/76 
usemtl scene_material
f 5/7/21 21/34/70 41/61/153 50/71/172 
usemtl scene_material
f 4/6/3 34/54/119 35/55/121 30/48/99 
usemtl scene_material
f 2/3/6 6/9/7 27/44/93 28/45/96 
usemtl scene_material
f 8/13/19 4/6/20 30/49/100 25/40/89 
usemtl scene_material
f 6/10/22 44/65/160 43/63/157 27/43/94 
usemtl scene_material
f 3/4/2 24/39/75 37/57/125 38/58/127 
usemtl scene_material
f 7/12/11 3/4/12 38/58/128 39/59/129 
usemtl scene_material
f 4/6/14 8/13/15 33/53/117 34/54/120 
usemtl scene_material
f 9/15/26 19/30/66 40/60/131 31/50/113 
usemtl scene_material
f 2/3/4 28/46/95 46/67/163 45/66/161 
usemtl scene_material
f 8/14/23 25/41/90 32/51/115 33/52/118 
usemtl scene_material
f 17/28/49 47/68/165 48/69/168 23/37/77 
usemtl scene_material
f 11/20/30 10/17/27 21/33/80 22/36/79 
usemtl scene_material
f 9/16/25 12/21/32 24/38/82 19/31/81 
usemtl scene_material
f 10/18/28 57/78/155 41/61/154 21/34/83 
usemtl scene_material
f 12/22/31 36/56/123 37/57/126 24/39/85 
usemtl scene_material
f 7/12/24 39/59/130 40/60/132 19/30/87 
usemtl scene_material
f 17/28/50 36/56/124 35/55/122 29/47/101 
usemtl scene_material
f 10/17/36 11/20/35 28/45/104 27/44/103 
usemtl scene_material
f 12/21/38 9/16/37 25/40/106 30/49/105 
usemtl scene_material
f 14/24/44 42/62/156 74/95/158 69/90/107 
usemtl scene_material
f 11/19/34 47/68/166 46/67/164 28/46/109 
usemtl scene_material
f 9/15/40 31/50/114 32/51/116 25/41/111 
usemtl scene_material
f 16/27/47 29/47/97 35/55/134 34/54/133 
usemtl scene_material
f 23/37/74 18/29/53 38/58/136 37/57/135 
usemtl scene_material
f 18/29/56 13/23/55 39/59/138 38/58/137 
usemtl scene_material
f 15/25/58 16/27/57 34/54/140 33/53/139 
usemtl scene_material
f 68/89/68 14/24/59 70/91/142 72/93/141 
usemtl scene_material
f 26/42/92 15/26/63 33/52/144 32/51/143 
usemtl scene_material
f 17/28/54 23/37/86 37/57/146 36/56/145 
usemtl scene_material
f 13/23/60 20/32/88 40/60/148 39/59/147 
usemtl scene_material
f 12/22/33 30/48/102 35/55/150 36/56/149 
usemtl scene_material
f 14/24/64 69/90/112 71/92/152 70/91/151 
usemtl scene_material
f 18/29/51 23/37/73 48/69/174 49/70/173 
usemtl scene_material
f 13/23/41 18/29/52 49/70/176 50/71/175 
usemtl scene_material
f 16/27/48 15/25/45 44/64/178 45/66/177 
usemtl scene_material
f 20/32/67 13/23/42 50/71/180 41/61/179 
usemtl scene_material
f 15/26/46 26/42/91 43/63/182 44/65/181 
usemtl scene_material
f 29/47/98 16/27/61 45/66/184 46/67/183 
usemtl scene_material
f 11/19/29 22/35/78 48/69/186 47/68/185 
usemtl scene_material
f 14/24/43 68/89/84 73/94/188 42/62/187 
usemtl scene_material
f 10/18/39 27/43/108 43/63/190 57/78/189 
usemtl scene_material
f 17/28/62 29/47/110 46/67/192 47/68/191 
usemtl scene_material
f 57/78/193 43/63/194 89/110/343 90/111/347 
usemtl scene_material
f 43/63/197 26/42/198 88/109/339 89/110/344 
usemtl scene_material
f 26/42/201 32/51/202 87/108/335 88/109/340 
usemtl scene_material
f 32/51/205 31/50/206 86/107/331 87/108/336 
usemtl scene_material
f 31/50/209 40/60/210 85/106/327 86/107/332 
usemtl scene_material
f 40/60/213 20/32/214 84/105/323 85/106/328 
usemtl scene_material
f 20/32/217 41/61/218 83/104/321 84/105/324 
usemtl scene_material
f 41/61/221 57/78/222 90/111/348 83/104/322 
usemtl scene_material
f 59/80/225 58/79/226 66/87/227 67/88/228 
usemtl scene_material
f 58/79/229 52/73/230 61/82/231 66/87/232 
usemtl scene_material
f 52/73/233 54/75/234 63/84/235 61/82/236 
usemtl scene_material
f 54/75/237 53/74/238 62/83/239 63/84/240 
usemtl scene_material
f 53/74/241 55/76/242 64/85/243 62/83/244 
usemtl scene_material
f 55/76/245 51/72/246 60/81/247 64/85/248 
usemtl scene_material
f 51/72/249 56/77/250 65/86/251 60/81/252 
usemtl scene_material
f 56/77/253 59/80/254 67/88/255 65/86/256 
usemtl scene_material
f 67/88/257 66/87/258 79/100/297 78/99/295 
usemtl scene_material
f 66/87/261 61/82/262 80/101/299 79/100/298 
usemtl scene_material
f 61/82/265 63/84/266 81/102/301 80/101/300 
usemtl scene_material
f 63/84/269 62/83/270 82/103/303 81/102/302 
usemtl scene_material
f 62/83/273 64/85/274 75/96/289 82/103/304 
usemtl scene_material
f 64/85/277 60/81/278 76/97/291 75/96/290 
usemtl scene_material
f 60/81/281 65/86/282 77/98/293 76/97/292 
usemtl scene_material
f 65/86/285 67/88/286 78/99/296 77/98/294 
usemtl scene_material
f 74/95/259 42/62/260 78/99/306 79/100/305 
usemtl scene_material
f 69/90/263 74/95/264 79/100/308 80/101/307 
usemtl scene_material
f 71/92/267 69/90/268 80/101/310 81/102/309 
usemtl scene_material
f 70/91/271 71/92/272 81/102/312 82/103/311 
usemtl scene_material
f 72/93/275 70/91/276 82/103/314 75/96/313 
usemtl scene_material
f 68/89/279 72/93/280 75/96/316 76/97/315 
usemtl scene_material
f 73/94/283 68/89/284 76/97/318 77/98/317 
usemtl scene_material
f 42/62/287 73/94/288 77/98/320 78/99/319 
usemtl scene_material
f 56/77/219 51/72/220 84/105/326 83/104/325 
usemtl scene_material
f 51/72/215 55/76/216 85/106/330 84/105/329 
usemtl scene_material
f 55/76/211 53/74/212 86/107/334 85/106/333 
usemtl scene_material
f 53/74/207 54/75/208 87/108/338 86/107/337 
usemtl scene_material
f 54/75/203 52/73/204 88/109/342 87/108/341 
usemtl scene_material
f 52/73/199 58/79/200 89/110/346 88/109/345 
usemtl scene_material
f 58/79/195 59/80/196 90/111/350 89/110/349 
usemtl scene_material
f 59/80/223 56/77/224 83/104/352 90/111/351 
#end 88 faces
